<svg viewBox="0 0 7 12" fill="none" xmlns="http://www.w3.org/2000/svg">
<path d="M6.17248 0.824396C6.32967 0.977127 6.41797 1.18425 6.41797 1.40021C6.41797 1.61617 6.32967 1.82329 6.17248 1.97602L2.02209 6.00752L6.17248 10.039C6.32521 10.1926 6.40972 10.3984 6.40781 10.6119C6.4059 10.8254 6.31772 11.0297 6.16226 11.1807C6.00681 11.3317 5.79651 11.4174 5.57667 11.4192C5.35682 11.4211 5.14503 11.339 4.98689 11.1906L0.243706 6.58333C0.086519 6.4306 -0.00178409 6.22348 -0.00178408 6.00752C-0.00178408 5.79156 0.086519 5.58444 0.243706 5.43171L4.98689 0.824396C5.14413 0.671711 5.35735 0.585937 5.57968 0.585937C5.80202 0.585937 6.01524 0.671711 6.17248 0.824396Z" fill="currentColor"/>
</svg>
