<svg  viewBox="0 0 16 8" fill="none" xmlns="http://www.w3.org/2000/svg">
<path fill-rule="evenodd" clip-rule="evenodd" d="M0.851779 0.225802C0.90403 0.173418 0.966103 0.131858 1.03444 0.1035C1.10278 0.0751431 1.17604 0.0605469 1.25003 0.0605469C1.32402 0.0605469 1.39728 0.0751431 1.46562 0.1035C1.53396 0.131858 1.59603 0.173418 1.64828 0.225802L8.00003 6.57868L14.3518 0.225802C14.4041 0.173503 14.4662 0.132017 14.5345 0.103713C14.6028 0.0754093 14.6761 0.0608414 14.75 0.0608414C14.824 0.0608414 14.8972 0.0754093 14.9656 0.103713C15.0339 0.132017 15.096 0.173503 15.1483 0.225802C15.2006 0.278101 15.2421 0.340189 15.2704 0.408521C15.2987 0.476852 15.3132 0.55009 15.3132 0.624052C15.3132 0.698014 15.2987 0.771252 15.2704 0.839584C15.2421 0.907916 15.2006 0.970003 15.1483 1.0223L8.39828 7.7723C8.34603 7.82469 8.28395 7.86625 8.21562 7.8946C8.14728 7.92296 8.07402 7.93756 8.00003 7.93756C7.92604 7.93756 7.85278 7.92296 7.78444 7.8946C7.7161 7.86625 7.65403 7.82469 7.60178 7.7723L0.851779 1.0223C0.799395 0.970051 0.757835 0.907978 0.729477 0.83964C0.70112 0.771302 0.686523 0.69804 0.686523 0.624052C0.686523 0.550064 0.70112 0.476803 0.729477 0.408464C0.757835 0.340126 0.799395 0.278053 0.851779 0.225802Z" fill="currentColor"/>
</svg>
